# xmcd CD database file
#
# Track frame offsets:
#	150
#	25372
#	31212
#	59915
#	90480
#	114750
#	140182
#	162792
#
# Disc length: 2521 seconds
#
# Revision: 1
# Processed by: cddbd v1.5.1PL2 Copyright (c) Steve Scherf et al.
# Submitted via: CDex 1.51
#
DISCID=6709d708
DTITLE=Lou Donaldson - Light-Foot
DYEAR=1958
DGENRE=Jazz
TTITLE0=Light-Foot
TTITLE1=Hog Maw [False Start]
TTITLE2=Hog Maw
TTITLE3=Mary Ann
TTITLE4=Green Eyes
TTITLE5=Walking By The River
TTITLE6=Day Dreams
TTITLE7=Stella By Starlight
EXTD=YEAR: 1958
EXTT0=
EXTT1=
EXTT2=
EXTT3=
EXTT4=
EXTT5=
EXTT6=
EXTT7=
PLAYORDER=
